HIERARCHY
ROOT hip
{
  OFFSET 0 0 0
  CHANNELS 6 Xposition Yposition Zposition Zrotation Yrotation Xrotation
  JOINT abdomen
  {
    OFFSET 0 20.6881 -0.73152
    CHANNELS 3 Zrotation Xrotation Yrotation
    JOINT chest
    {
      OFFSET 0 11.7043 -0.48768
      CHANNELS 3 Zrotation Xrotation Yrotation
      JOINT neck
      {
        OFFSET 0 22.1894 -2.19456
        CHANNELS 3 Zrotation Xrotation Yrotation
        JOINT head
        {
          OFFSET -0.24384 7.07133 1.2192
          CHANNELS 3 Zrotation Xrotation Yrotation
          JOINT leftEye
          {
            OFFSET 4.14528 8.04674 8.04672
            CHANNELS 3 Zrotation Xrotation Yrotation
            End Site
            {
              OFFSET 1 0 0
            }
          }
          JOINT rightEye
          {
            OFFSET -3.6576 8.04674 8.04672
            CHANNELS 3 Zrotation Xrotation Yrotation
            End Site
            {
              OFFSET 1 0 0
            }
          }
        }
      }
      JOINT rCollar
      {
        OFFSET -2.68224 19.2634 -4.8768
        CHANNELS 3 Zrotation Xrotation Yrotation
        JOINT rShldr
        {
          OFFSET -8.77824 -1.95073 1.46304
          CHANNELS 3 Zrotation Xrotation Yrotation
          JOINT rForeArm
          {
            OFFSET -28.1742 -1.7115 0.48768
            CHANNELS 3 Zrotation Xrotation Yrotation
            JOINT rHand
            {
              OFFSET -22.5879 0.773209 7.07136
              CHANNELS 3 Zrotation Xrotation Yrotation
              JOINT rThumb1
              {
                OFFSET -1.2192 -0.487915 3.41376
                CHANNELS 3 Zrotation Xrotation Yrotation
                JOINT rThumb2
                {
                  OFFSET -3.37035 -0.52449 3.41376
                  CHANNELS 3 Zrotation Xrotation Yrotation
                  End Site
                  {
                    OFFSET -1.78271 -1.18214 1.43049
                  }
                }
              }
              JOINT rIndex1
              {
                OFFSET -7.75947 0.938293 5.60832
                CHANNELS 3 Zrotation Xrotation Yrotation
                JOINT rIndex2
                {
                  OFFSET -2.54057 -0.884171 1.56538
                  CHANNELS 3 Zrotation Xrotation Yrotation
                  End Site
                  {
                    OFFSET -1.62519 -0.234802 1.16502
                  }
                }
              }
              JOINT rMid1
              {
                OFFSET -8.24714 1.18213 3.41376
                CHANNELS 3 Zrotation Xrotation Yrotation
                JOINT rMid2
                {
                  OFFSET -3.10165 -0.590103 1.0647
                  CHANNELS 3 Zrotation Xrotation Yrotation
                  End Site
                  {
                    OFFSET -2.48547 -0.328903 0.83742
                  }
                }
              }
              JOINT rRing1
              {
                OFFSET -8.82822 0.546677 1.51678
                CHANNELS 3 Zrotation Xrotation Yrotation
                JOINT rRing2
                {
                  OFFSET -2.60934 -0.819778 -0.0198488
                  CHANNELS 3 Zrotation Xrotation Yrotation
                  End Site
                  {
                    OFFSET -2.33842 -0.294052 0.168128
                  }
                }
              }
              JOINT rPinky1
              {
                OFFSET -8.27202 -0.0477905 -0.4584
                CHANNELS 3 Zrotation Xrotation Yrotation
                JOINT rPinky2
                {
                  OFFSET -1.82734 -0.647385 -0.700984
                  CHANNELS 3 Zrotation Xrotation Yrotation
                  End Site
                  {
                    OFFSET -1.69225 -0.51767 -0.607171
                  }
                }
              }
            }
          }
        }
      }
      JOINT lCollar
      {
        OFFSET 2.68224 19.2634 -4.8768
        CHANNELS 3 Zrotation Xrotation Yrotation
        JOINT lShldr
        {
          OFFSET 8.77824 -1.95073 1.46304
          CHANNELS 3 Zrotation Xrotation Yrotation
          JOINT lForeArm
          {
            OFFSET 28.1742 -1.7115 0.48768
            CHANNELS 3 Zrotation Xrotation Yrotation
            JOINT lHand
            {
              OFFSET 22.5879 0.773209 7.07136
              CHANNELS 3 Zrotation Xrotation Yrotation
              JOINT lThumb1
              {
                OFFSET 1.2192 -0.487915 3.41376
                CHANNELS 3 Zrotation Xrotation Yrotation
                JOINT lThumb2
                {
                  OFFSET 3.37035 -0.52449 3.41376
                  CHANNELS 3 Zrotation Xrotation Yrotation
                  End Site
                  {
                    OFFSET 1.78271 -1.18214 1.43049
                  }
                }
              }
              JOINT lIndex1
              {
                OFFSET 7.75947 0.938293 5.60832
                CHANNELS 3 Zrotation Xrotation Yrotation
                JOINT lIndex2
                {
                  OFFSET 2.54057 -0.884171 1.56538
                  CHANNELS 3 Zrotation Xrotation Yrotation
                  End Site
                  {
                    OFFSET 1.62519 -0.234802 1.16502
                  }
                }
              }
              JOINT lMid1
              {
                OFFSET 8.24714 1.18213 3.41376
                CHANNELS 3 Zrotation Xrotation Yrotation
                JOINT lMid2
                {
                  OFFSET 3.10165 -0.590103 1.0647
                  CHANNELS 3 Zrotation Xrotation Yrotation
                  End Site
                  {
                    OFFSET 2.48547 -0.328903 0.83742
                  }
                }
              }
              JOINT lRing1
              {
                OFFSET 8.82822 0.546677 1.51678
                CHANNELS 3 Zrotation Xrotation Yrotation
                JOINT lRing2
                {
                  OFFSET 2.60934 -0.819778 -0.0198488
                  CHANNELS 3 Zrotation Xrotation Yrotation
                  End Site
                  {
                    OFFSET 2.33842 -0.294052 0.168128
                  }
                }
              }
              JOINT lPinky1
              {
                OFFSET 8.27202 -0.0477905 -0.4584
                CHANNELS 3 Zrotation Xrotation Yrotation
                JOINT lPinky2
                {
                  OFFSET 1.82734 -0.647385 -0.700984
                  CHANNELS 3 Zrotation Xrotation Yrotation
                  End Site
                  {
                    OFFSET 1.69225 -0.51767 -0.607171
                  }
                }
              }
            }
          }
        }
      }
    }
  }
  JOINT rButtock
  {
    OFFSET -8.77824 4.35084 1.2192
    CHANNELS 3 Zrotation Xrotation Yrotation
    JOINT rThigh
    {
      OFFSET 0 -1.70687 -2.19456
      CHANNELS 3 Zrotation Xrotation Yrotation
      JOINT rShin
      {
        OFFSET 0 -36.8199 0.73152
        CHANNELS 3 Zrotation Xrotation Yrotation
        JOINT rFoot
        {
          OFFSET 0.73152 -45.1104 -5.12064
          CHANNELS 3 Zrotation Xrotation Yrotation
          End Site
          {
            OFFSET -1.1221 -3.69964 12.103
          }
        }
      }
    }
  }
  JOINT lButtock
  {
    OFFSET 8.77824 4.35084 1.2192
    CHANNELS 3 Zrotation Xrotation Yrotation
    JOINT lThigh
    {
      OFFSET 0 -1.70687 -2.19456
      CHANNELS 3 Zrotation Xrotation Yrotation
      JOINT lShin
      {
        OFFSET 0 -36.8199 0.73152
        CHANNELS 3 Zrotation Xrotation Yrotation
        JOINT lFoot
        {
          OFFSET -0.73152 -45.1104 -5.12064
          CHANNELS 3 Zrotation Xrotation Yrotation
          End Site
          {
            OFFSET 1.1221 -3.69964 12.103
          }
        }
      }
    }
  }
}
MOTION
Frames:	4
Frame Time:	0.03333
-1.3343000411987305 73.55229949951172 0.08399999886751175 -172.41299629211426 -70.77480018138885 168.12000274658203 -2.798990048468113 18.671400099992752 11.459799706935883 -0.9429800324141979 -10.956599861383438 2.9704100266098976 -2.1158899180591106 13.657400608062744 9.812250137329102 5.403660088777542 -24.081599414348602 20.60549944639206 0.0 0.0 0.0 0.0 0.0 0.0 0.0 -5.115907697472721e-12 0.0 -26.615798771381378 51.81820213794708 100.02699851989746 -28.023800253868103 -40.33600062131882 84.49080169200897 -1.6675499640405178 -33.8932004570961 -5.430499948561192 -4.354916427473654e-09 -7.985931915754918e-09 -2.2714630176778883e-09 -7.458353934453044e-09 -1.4252918845159002e-08 -4.04156708100345e-09 -4.354916427473654e-09 -7.985931915754918e-09 -2.2714630176778883e-09 7.7309102565050125 5.474880114197731 0.41731400415301323 -4.354916427473654e-09 -7.985931915754918e-09 -2.2714630176778883e-09 2.905540131032467 0.9651830233633518 0.102901995414868 -4.354916427473654e-09 -7.985931915754918e-09 -2.2714630176778883e-09 10.27859978377819 0.7318009994924068 0.025912300043273717 -4.354916427473654e-09 -7.985931915754918e-09 -2.2714630176778883e-09 2.221670038998127 -0.733487019315362 -0.2089200052432716 0.0 -5.115907697472721e-12 0.0 0.35705801099538803 1.0814299620687962 -86.92259967327118 26.921699345111847 -44.24389868974686 -91.90139651298523 1.203669961541891 29.546798765659332 -4.56837996840477 4.039648615616898e-09 1.0354597179684788e-08 -3.5504399420460686e-09 6.901998972352885e-09 1.7987531464314088e-08 -6.231175575521775e-09 4.039648615616898e-09 1.0354597179684788e-08 -3.5504399420460686e-09 -7.7309102565050125 5.474880114197731 -0.41731400415301323 4.039648615616898e-09 1.0354597179684788e-08 -3.5504399420460686e-09 -2.905540131032467 0.9651830233633518 -0.102901995414868 4.039648615616898e-09 1.0354597179684788e-08 -3.5504399420460686e-09 -10.27859978377819 0.7318009994924068 -0.025912300043273717 4.039648615616898e-09 1.0354597179684788e-08 -3.5504399420460686e-09 -2.221670038998127 -0.733487019315362 0.2089200052432716 0.0 0.0 0.0 -11.397899687290192 -38.813098669052124 -22.719900906085968 -1.587699931114912 66.25469863414764 2.017480004578829 -3.8256199657917023 -14.668200463056564 -7.551349774003029 0.0 0.0 0.0 43.39780122041702 -50.22920250892639 39.96579945087433 0.9298370406031609 55.40149927139282 -0.7065569702535868 -2.963249869644642 21.76219940185547 12.66499936580658
-2.682200074195862 73.84770202636719 0.15799999982118607 -174.70999717712402 -68.4406989812851 169.819997549057 -2.968120090663433 18.254599571228027 12.485000342130661 -1.4344599656760693 -10.773899853229523 3.2127398997545242 -1.6371300257742405 13.847099840641022 9.960389882326126 5.043850131332874 -23.313900232315063 20.70320025086403 0.0 0.0 0.0 0.0 0.0 0.0 0.0 0.0 0.0 -25.378399193286896 54.18730080127716 97.87349581718445 -27.707801163196564 -41.740198731422424 87.10069835186005 -2.315909955650568 -38.99729937314987 -6.534229964017868 -3.731415176844166e-09 -7.290168468898628e-09 -1.9542767404345796e-09 -6.380815875672852e-09 -1.2958594197698403e-08 -3.489049049676396e-09 -3.731415176844166e-09 -7.290168468898628e-09 -1.9542767404345796e-09 7.7309102565050125 5.474880114197731 0.41731400415301323 -3.731415176844166e-09 -7.290168468898628e-09 -1.9542767404345796e-09 2.905540131032467 0.9651830233633518 0.102901995414868 -3.731415176844166e-09 -7.290168468898628e-09 -1.9542767404345796e-09 10.27859978377819 0.7318009994924068 0.025912300043273717 -3.731415176844166e-09 -7.290168468898628e-09 -1.9542767404345796e-09 2.221670038998127 -0.733487019315362 -0.2089200052432716 0.0 0.0 0.0 -2.759429980069399 8.61043006181717 -83.32599878311157 26.49539977312088 -45.24570107460022 -93.96650433540344 1.348579991608858 31.04490101337433 -4.852750115096569 3.945004323213652e-09 6.328377821773756e-09 -1.5654677554266527e-09 6.77921718761354e-09 1.1060592441936024e-08 -2.793285602820106e-09 3.945004323213652e-09 6.328377821773756e-09 -1.5654677554266527e-09 -7.7309102565050125 5.474880114197731 -0.41731400415301323 3.945004323213652e-09 6.328377821773756e-09 -1.5654677554266527e-09 -2.905540131032467 0.9651830233633518 -0.102901995414868 3.945004323213652e-09 6.328377821773756e-09 -1.5654677554266527e-09 -10.27859978377819 0.7318009994924068 -0.025912300043273717 3.945004323213652e-09 6.328377821773756e-09 -1.5654677554266527e-09 -2.221670038998127 -0.733487019315362 0.2089200052432716 0.0 0.0 0.0 -11.797500550746918 -37.786601185798645 -22.730299830436707 -1.5784099325537682 66.04809880256653 1.9658699445426464 -4.310939870774746 -14.591199606657028 -8.574239686131477 0.0 0.0 0.0 42.65659958124161 -48.07800114154816 37.69989877939224 0.7338920328766108 50.331501960754395 -0.3640270186588168 -4.8604899644851685 26.317499577999115 14.841000437736511
-4.067400097846985 74.05130004882812 0.23200000077486038 -175.87700486183167 -66.22160017490387 170.5299997329712 -2.5492599606513977 17.75459960103035 13.107999712228775 -1.8500100821256638 -10.475300252437592 3.378150053322315 -1.5037699230015278 13.862800151109695 10.173199698328972 4.6805499494075775 -22.431300580501556 20.950600504875183 0.0 0.0 0.0 0.0 0.0 0.0 0.0 0.0 0.0 -23.952000439167023 56.68500065803528 95.02229690551758 -27.33869969844818 -43.05029958486557 89.57139909267426 -3.625759854912758 -46.37959957122803 -8.479359894990921 2.992806003021542e-10 -5.305196282279212e-09 -1.984972186619416e-09 5.780975698144175e-10 -9.121663424593862e-09 -3.376499080331996e-09 2.992806003021542e-10 -5.305196282279212e-09 -1.984972186619416e-09 7.7309102565050125 5.474880114197731 0.41731400415301323 2.992806003021542e-10 -5.305196282279212e-09 -1.984972186619416e-09 2.905540131032467 0.9651830233633518 0.102901995414868 2.992806003021542e-10 -5.305196282279212e-09 -1.984972186619416e-09 10.27859978377819 0.7318009994924068 0.025912300043273717 2.992806003021542e-10 -5.305196282279212e-09 -1.984972186619416e-09 2.221670038998127 -0.733487019315362 -0.2089200052432716 0.0 0.0 0.0 -7.456449866294861 14.587099850177765 -78.0299985408783 26.02539896965027 -46.24239921569824 -96.03380084037781 1.4806600101292133 32.33260005712509 -5.1037901267409325 1.3979217783344211e-09 -5.934452929068357e-10 1.6473222785862163e-09 2.446682856316329e-09 -9.157474778476171e-10 2.8035174182150513e-09 1.3979217783344211e-09 -5.934452929068357e-10 1.6473222785862163e-09 -7.7309102565050125 5.474880114197731 -0.41731400415301323 1.3979217783344211e-09 -5.934452929068357e-10 1.6473222785862163e-09 -2.905540131032467 0.9651830233633518 -0.102901995414868 1.3979217783344211e-09 -5.934452929068357e-10 1.6473222785862163e-09 -10.27859978377819 0.7318009994924068 -0.025912300043273717 1.3979217783344211e-09 -5.934452929068357e-10 1.6473222785862163e-09 -2.221670038998127 -0.733487019315362 0.2089200052432716 0.0 0.0 0.0 -11.968799829483032 -36.878700256347656 -22.512700259685516 -1.5855900384485722 65.9805017709732 1.9225899875164032 -4.5932601392269135 -14.821499437093735 -8.98633025586605 0.0 0.0 0.0 42.20080107450485 -45.872302651405334 35.61120092868805 0.6064159842208028 46.16300046443939 -0.11924900114536285 -6.650999933481216 28.624700903892517 17.512000501155853
-5.4974000453948975 74.08219909667969 0.3570000007748604 -176.31199479103088 -64.12400007247925 170.67999958992004 -1.926529984921217 17.18539997935295 13.559699803590775 -2.1898000314831734 -10.119599774479866 3.511910140514374 -1.3746499735862017 13.79010021686554 10.411200150847435 4.1942500323057175 -21.526599526405334 21.23610019683838 0.0 0.0 0.0 0.0 0.0 0.0 0.0 5.115907697472721e-12 0.0 -21.885299384593964 59.41780149936676 91.23290419578552 -26.929499208927155 -44.20199990272522 91.84630393981934 -6.086140125989914 -55.121798515319824 -11.632000207901001 3.778097834583605e-09 -3.1667468647356145e-09 -1.8826540326699615e-09 6.580336275874288e-09 -5.069864528195467e-09 -3.049080987693742e-09 3.778097834583605e-09 -3.1667468647356145e-09 -1.8826540326699615e-09 7.7309102565050125 5.474880114197731 0.41731400415301323 3.778097834583605e-09 -3.1667468647356145e-09 -1.8826540326699615e-09 2.905540131032467 0.9651830233633518 0.102901995414868 3.778097834583605e-09 -3.1667468647356145e-09 -1.8826540326699615e-09 10.27859978377819 0.7318009994924068 0.025912300043273717 3.778097834583605e-09 -3.1667468647356145e-09 -1.8826540326699615e-09 2.221670038998127 -0.733487019315362 -0.2089200052432716 0.0 5.115907697472721e-12 0.0 -14.01709958910942 17.423800081014633 -69.1599977016449 25.60640037059784 -46.996899247169495 -97.70360469818115 1.5446199662983418 32.93110013008118 -5.2227699011564255 -8.978418009064626e-10 -6.0316551753203385e-09 4.051798896398395e-09 -1.4669865322503028e-09 -1.0344365364289843e-08 7.008793545537628e-09 -8.978418009064626e-10 -6.0316551753203385e-09 4.051798896398395e-09 -7.7309102565050125 5.474880114197731 -0.41731400415301323 -8.978418009064626e-10 -6.0316551753203385e-09 4.051798896398395e-09 -2.905540131032467 0.9651830233633518 -0.102901995414868 -8.978418009064626e-10 -6.0316551753203385e-09 4.051798896398395e-09 -10.27859978377819 0.7318009994924068 -0.025912300043273717 -8.978418009064626e-10 -6.0316551753203385e-09 4.051798896398395e-09 -2.221670038998127 -0.733487019315362 0.2089200052432716 0.0 0.0 0.0 -12.161799520254135 -36.11089915037155 -22.237500250339508 -1.6093899495899677 66.08720004558563 1.9012300483882427 -4.837519861757755 -15.193700194358826 -9.260779917240143 0.0 0.0 0.0 42.00329929590225 -43.60830098390579 34.01369869709015 0.5232199793681502 42.905999422073364 0.059946601395495236 -8.342020064592361 29.54499900341034 20.50920009613037
